<svg width="34" height="34" viewBox="0 0 34 34" fill="none" xmlns="http://www.w3.org/2000/svg">
<path d="M12.7498 26.9167C12.7498 28.1067 12.934 29.2683 13.274 30.345C7.834 28.4608 3.72566 23.46 3.30066 17.6092C2.87566 11.39 6.45983 5.58166 12.254 3.14499C13.7557 2.52166 14.5207 2.97499 14.8465 3.30083C15.1582 3.61249 15.5973 4.36333 14.974 5.79416C14.3365 7.26749 14.0248 8.82582 14.0248 10.4408C14.039 13.3308 15.1723 16.0083 17.014 18.0625C14.4215 20.1308 12.7498 23.3325 12.7498 26.9167Z" fill="#1F8505"/>
<path d="M30.0475 25.1033C27.2425 28.9142 22.7942 31.1525 18.0483 31.1525C17.8217 31.1525 17.595 31.1383 17.3683 31.1242C15.9517 31.0675 14.5775 30.7983 13.2742 30.345C12.9342 29.2683 12.75 28.1067 12.75 26.9167C12.75 23.3325 14.4217 20.1308 17.0142 18.0625C19.0967 20.4 22.0858 21.9158 25.3867 22.0575C26.2792 22.1 27.1717 22.0292 28.05 21.8733C29.6367 21.59 30.2742 22.185 30.5008 22.5675C30.7417 22.95 30.9967 23.7858 30.0475 25.1033Z" fill="#121212"/>
</svg>
